<svg width="244" height="51" viewBox="0 0 244 51" fill="none" xmlns="http://www.w3.org/2000/svg">
<path d="M3.16875 16.375C1.58541 15.75 0.543747 14.9375 0.0437469 13.9375C1.23125 11.6875 2.02291 10.1771 2.41875 9.40625C2.83541 8.63542 3.30416 7.45833 3.825 5.875C4.36666 4.27083 4.74166 2.65625 4.95 1.03125H26.6062H52.6375C53.1583 5.11458 54.7833 9.41667 57.5125 13.9375C57.0333 14.9375 55.9187 15.75 54.1687 16.375C52.4604 13.2708 49.9396 10.6875 46.6062 8.625C43.2937 6.54167 38.9917 5.5 33.7 5.5C33.5333 10.6667 33.45 16.7917 33.45 23.875C33.45 32.9167 33.5542 39.5104 33.7625 43.6562C33.8042 44.4271 36.1271 45.0417 40.7312 45.5C41.0854 46.8333 41.0437 48.1771 40.6062 49.5312C33.8562 49.3646 29.9292 49.2812 28.825 49.2812C27.1583 49.2812 22.4917 49.3646 14.825 49.5312C14.3042 48.0938 14.3042 46.75 14.825 45.5C19.3458 45.0417 21.6271 44.4479 21.6687 43.7188C21.8771 38.4688 21.9812 31.8542 21.9812 23.875C21.9812 17.2083 21.8979 11.1458 21.7312 5.6875C13.0646 6.8125 6.87708 10.375 3.16875 16.375ZM12.0125 4.40625L22.95 4.09375C23.1583 11.0104 23.2625 17.6042 23.2625 23.875C23.2625 31.9375 23.1583 38.5521 22.95 43.7188C22.9083 45.2604 20.4917 46.2604 15.7 46.7188C15.5333 47.0521 15.5333 47.5417 15.7 48.1875C19.2417 48.0625 22.8771 48 26.6062 48C31.0437 48 35.3042 48.0625 39.3875 48.1875C39.5542 47.8125 39.5542 47.3229 39.3875 46.7188C32.4708 46.3021 28.9917 45.3021 28.95 43.7188C28.7417 36.8021 28.6375 30.1875 28.6375 23.875C28.6375 15.8542 28.7417 9.26042 28.95 4.09375L33.7625 4.21875C44.1375 4.46875 51.1375 7.98958 54.7625 14.7812C55.3042 14.5729 55.6583 14.2917 55.825 13.9375C53.7417 9.6875 51.4083 6.6875 48.825 4.9375C46.2417 3.1875 42.3979 2.3125 37.2937 2.3125H26.6062C24.3354 2.3125 20.9083 2.30208 16.325 2.28125C11.7417 2.26042 8.33541 2.25 6.10625 2.25C6.02291 2.95833 5.87708 3.69792 5.66875 4.46875C5.46041 5.23958 5.2625 5.89583 5.075 6.4375C4.90833 6.95833 4.61666 7.65625 4.2 8.53125C3.80416 9.40625 3.53333 10 3.3875 10.3125C3.24166 10.6042 2.90833 11.25 2.3875 12.25C1.8875 13.25 1.59583 13.8125 1.5125 13.9375C1.67916 14.2917 2.04375 14.5729 2.60625 14.7812C4.08541 12.3438 5.23125 10.5417 6.04375 9.375C6.85625 8.20833 7.81458 7.09375 8.91875 6.03125C10.0437 4.94792 11.075 4.40625 12.0125 4.40625ZM71.5062 25.2812C72.4854 25.4479 73.2562 25.8333 73.8187 26.4375C74.4021 27.0208 74.6937 27.7708 74.6937 28.6875C74.6937 29.7917 74.3292 30.7083 73.6 31.4375C72.8708 32.1458 71.9125 32.5 70.725 32.5C69.4958 32.5 68.3812 32.0625 67.3812 31.1875C66.3812 30.3125 65.8812 29.0729 65.8812 27.4688C65.8812 24.7396 67.1729 22.5312 69.7562 20.8438C72.3604 19.1562 75.7562 18.3125 79.9437 18.3125C83.9229 18.3125 86.7146 19.1146 88.3187 20.7188C89.9437 22.3021 90.7562 24.9792 90.7562 28.75V39.6875L92.7562 39.625C94.4646 39.75 95.6521 40.5625 96.3187 42.0625L95.3187 43.7812C94.6729 44.7604 94.1312 45.5208 93.6937 46.0625C93.2771 46.5833 92.6729 47.1771 91.8812 47.8438C91.0896 48.5104 90.1625 48.9896 89.1 49.2812C88.0375 49.5729 86.7979 49.7188 85.3812 49.7188C83.6312 49.7188 82.3083 49.0625 81.4125 47.75C79.1625 49.375 76.225 50.1875 72.6 50.1875C71.0167 50.1875 69.6625 49.9375 68.5375 49.4375C67.4333 48.9583 66.6208 48.3125 66.1 47.5C65.6 46.6875 65.2458 45.9271 65.0375 45.2188C64.8292 44.5104 64.725 43.7917 64.725 43.0625C64.725 40 65.7562 37.7083 67.8187 36.1875C69.8812 34.6667 74.0479 33.1042 80.3187 31.5V28.0938C80.3187 26.4271 79.9646 25.2083 79.2562 24.4375C78.5687 23.6667 77.6729 23.2812 76.5687 23.2812C74.2146 23.2812 72.5271 23.9479 71.5062 25.2812ZM81.6 34.4375V40.9688C79.6 43.6146 77.5583 44.9375 75.475 44.9375C74.2667 44.9375 73.2771 44.6458 72.5062 44.0625C71.7562 43.4792 71.3812 42.6562 71.3812 41.5938C71.3812 39.8854 72.0792 38.4792 73.475 37.375C74.8917 36.2708 77.6 35.2917 81.6 34.4375ZM80.3187 40.5625V36.75C77.2979 37.8542 75.7875 39.4688 75.7875 41.5938C75.7875 42.4896 76.1104 43.1146 76.7562 43.4688C77.8604 43.0729 79.0479 42.1042 80.3187 40.5625ZM70.725 29.75C69.9958 29.75 69.4854 29.2188 69.1937 28.1562C68.7771 26.4479 69.2875 24.9583 70.725 23.6875C72.1417 22.4375 74.2771 21.8125 77.1312 21.8125C78.4854 21.8125 79.5687 22.3438 80.3812 23.4062C81.1937 24.4479 81.6 26.0104 81.6 28.0938V32.4375C75.4542 34.0208 71.3187 35.5208 69.1937 36.9375C67.0687 38.3333 66.0062 40.375 66.0062 43.0625C66.0062 44.4792 66.4854 45.8125 67.4437 47.0625C68.4021 48.2917 70.1208 48.9062 72.6 48.9062C73.5792 48.9062 74.4958 48.75 75.35 48.4375C76.225 48.125 77.1208 47.625 78.0375 46.9375C78.975 46.2292 79.5479 45.7812 79.7562 45.5938C79.9646 45.4062 80.3083 45.0833 80.7875 44.625C81.2875 44.1458 81.5583 43.8854 81.6 43.8438C81.8708 46.9062 83.1312 48.4375 85.3812 48.4375C85.9437 48.4375 86.5896 48.2917 87.3187 48C88.0479 47.7083 88.7771 47.1354 89.5062 46.2812C90.2562 45.4271 90.725 44.8646 90.9125 44.5938C91.1208 44.3021 91.4229 43.8542 91.8187 43.25C92.2146 42.625 92.5062 42.1979 92.6937 41.9688C92.4229 41.3854 91.9021 41.0521 91.1312 40.9688C89.9854 42.7188 88.8187 43.5729 87.6312 43.5312C86.7771 43.4896 86.35 42.8854 86.35 41.7188V28.75C86.35 25.4167 85.6937 23.0625 84.3812 21.6875C83.0896 20.2917 80.8604 19.5938 77.6937 19.5938C74.8396 19.5938 72.3604 20.3333 70.2562 21.8125C68.1729 23.2708 67.1312 25.1562 67.1312 27.4688C67.1312 28.6562 67.4958 29.5833 68.225 30.25C68.9542 30.8958 69.7875 31.2188 70.725 31.2188C71.0167 30.8021 71.0167 30.3125 70.725 29.75ZM156.812 4.75C154.729 4.91667 153.073 5.17708 151.844 5.53125C150.635 5.86458 149.833 6.5 149.438 7.4375L132.25 50.1875H129.031L110.531 7.875C109.76 6.16667 107.354 5.125 103.312 4.75C102.958 3.375 103 2.03125 103.438 0.71875C113.083 1.01042 121.448 1.05208 128.531 0.84375C128.948 2.03125 128.948 3.35417 128.531 4.8125C125.844 5.02083 124.156 5.25 123.469 5.5C122.781 5.75 122.583 6.26042 122.875 7.03125L133.594 31.9375L143.5 7.03125C143.625 6.69792 143.531 6.40625 143.219 6.15625C142.927 5.88542 142.427 5.66667 141.719 5.5C141.031 5.33333 140.333 5.19792 139.625 5.09375C138.917 4.98958 138.052 4.89583 137.031 4.8125C136.698 3.4375 136.74 2.09375 137.156 0.78125C144.031 1.03125 150.542 1.01042 156.688 0.71875C157.104 2.03125 157.146 3.375 156.812 4.75ZM155.781 3.53125C155.948 2.92708 155.948 2.4375 155.781 2.0625C153.052 2.1875 150.26 2.25 147.406 2.25C144.677 2.25 141.583 2.1875 138.125 2.0625C137.958 2.4375 137.958 2.92708 138.125 3.53125C139.062 3.61458 139.844 3.69792 140.469 3.78125C141.115 3.86458 141.896 4.02083 142.812 4.25C143.729 4.47917 144.365 4.83333 144.719 5.3125C145.094 5.79167 145.156 6.34375 144.906 6.96875L131.969 39.5L118.156 7.375C117.552 5.95833 117.792 5.04167 118.875 4.625C119.979 4.1875 122.792 3.82292 127.312 3.53125C127.479 2.92708 127.479 2.4375 127.312 2.0625C121.167 2.35417 113.51 2.35417 104.344 2.0625C104.156 2.4375 104.156 2.92708 104.344 3.53125C108.26 3.90625 110.708 5.1875 111.688 7.375L129.875 48.9062H131.344L148.25 6.96875C148.833 5.78125 149.75 4.95833 151 4.5C152.271 4.02083 153.865 3.69792 155.781 3.53125ZM187.806 40.4375C187.973 35.2292 187.973 30.0104 187.806 24.7812C187.806 24.0521 186.233 23.4271 183.087 22.9062C182.608 21.6354 182.608 20.375 183.087 19.125H196.587C197.171 19.3542 197.587 19.6042 197.837 19.875C198.108 20.1458 198.348 20.5417 198.556 21.0625C198.556 21.4375 198.504 22.0312 198.4 22.8438C198.296 23.6562 198.244 24.3021 198.244 24.7812C198.035 31.6354 198.035 37.6042 198.244 42.6875C199.744 43.1667 201.327 43.4479 202.994 43.5312C203.452 44.7604 203.452 46.0833 202.994 47.5C200.265 47.6667 196.89 48.6042 192.869 50.3125C190.598 50.1458 188.91 49.4583 187.806 48.25V47.4375C184.952 49.2708 181.567 50.1875 177.65 50.1875C174.817 50.1875 172.806 49.4167 171.619 47.875C170.431 46.3333 169.817 43.9167 169.775 40.625C169.817 35.3958 169.817 30.1146 169.775 24.7812C169.775 24.0521 168.192 23.4271 165.025 22.9062C164.567 21.6354 164.567 20.375 165.025 19.125H178.587C179.192 19.3542 179.619 19.6042 179.869 19.875C180.14 20.1458 180.379 20.5417 180.587 21.0625C180.587 21.4375 180.535 22.0312 180.431 22.8438C180.327 23.6562 180.275 24.3021 180.275 24.7812C180.129 29.6354 180.129 34.5833 180.275 39.625C180.358 42 180.785 43.3854 181.556 43.7812C183.077 43.3854 185.16 42.2708 187.806 40.4375ZM189.087 24.7812C189.212 30.1979 189.212 35.6354 189.087 41.0938C185.212 43.8646 182.223 45.25 180.119 45.25C177.265 45.25 175.837 43.375 175.837 39.625C175.712 34.5833 175.712 29.6354 175.837 24.7812C175.837 24.2188 175.89 23.5417 175.994 22.75C176.119 21.9583 176.181 21.4583 176.181 21.25C175.952 20.7708 175.65 20.4479 175.275 20.2812C172.192 20.4896 169.119 20.4896 166.056 20.2812C165.89 20.7604 165.89 21.25 166.056 21.75C169.348 22.2708 171.015 23.2812 171.056 24.7812C171.098 30.0729 171.098 35.3542 171.056 40.625C171.015 43.4583 171.504 45.5521 172.525 46.9062C173.546 48.2396 175.254 48.9062 177.65 48.9062C180.796 48.9062 184.608 46.9583 189.087 43.0625V47.625C189.254 47.9583 189.619 48.2292 190.181 48.4375C193.16 47.3333 197.025 46.5938 201.775 46.2188C201.942 45.6979 201.942 45.2083 201.775 44.75C198.192 44.6042 195.546 44.1771 193.837 43.4688C193.671 36.0312 193.671 29.8021 193.837 24.7812C193.837 24.2188 193.89 23.5417 193.994 22.75C194.098 21.9583 194.15 21.4583 194.15 21.25C193.942 20.7708 193.64 20.4479 193.244 20.2812C190.223 20.4479 187.171 20.4479 184.087 20.2812C183.921 20.7604 183.921 21.25 184.087 21.75C187.379 22.2708 189.046 23.2812 189.087 24.7812ZM229.55 21.625C231.217 21.625 232.425 22.1667 233.175 23.25C233.925 24.3125 234.3 25.6458 234.3 27.25C234.3 27.8542 234.196 28.5417 233.988 29.3125H221.8C222.446 26.7083 223.488 24.7812 224.925 23.5312C226.383 22.2604 227.925 21.625 229.55 21.625ZM221.488 31.4375H238.519C238.852 30.3958 239.019 29.3229 239.019 28.2188C239.019 25.7812 238.321 23.7396 236.925 22.0938C235.55 20.4271 233.352 19.5938 230.331 19.5938C226.394 19.5938 223.081 21.0208 220.394 23.875C217.706 26.7292 216.363 30.3542 216.363 34.75C216.363 39.4375 217.644 42.9688 220.206 45.3438C222.769 47.7188 225.779 48.9062 229.238 48.9062C231.8 48.9062 234.175 48.2188 236.363 46.8438C238.571 45.4479 240.185 43.3542 241.206 40.5625C240.915 40.2292 240.508 40 239.988 39.875C239.904 40 239.654 40.3438 239.238 40.9062C238.842 41.4479 238.55 41.8438 238.363 42.0938C238.175 42.3229 237.831 42.6667 237.331 43.125C236.852 43.5625 236.383 43.8854 235.925 44.0938C235.488 44.3021 234.925 44.5104 234.238 44.7188C233.55 44.9062 232.8 45 231.988 45C228.779 45 226.227 44.0521 224.331 42.1562C222.435 40.2396 221.446 37.6667 221.363 34.4375C221.363 33.7083 221.404 32.7083 221.488 31.4375ZM239.488 38.4062C240.8 38.6979 241.863 39.3542 242.675 40.375C241.488 43.625 239.654 46.0729 237.175 47.7188C234.696 49.3646 232.05 50.1875 229.238 50.1875C225.404 50.1875 222.081 48.8958 219.269 46.3125C216.477 43.7292 215.081 39.875 215.081 34.75C215.081 30.1042 216.508 26.2083 219.363 23.0625C222.238 19.8958 226.3 18.3125 231.55 18.3125C239.488 18.3125 243.456 21.6146 243.456 28.2188C243.456 29.5104 243.154 31.0104 242.55 32.7188H225.769V34.75C225.873 37.2708 226.56 39.3229 227.831 40.9062C229.102 42.4688 230.852 43.3854 233.081 43.6562C234.394 43.5312 235.477 43.0833 236.331 42.3125C237.185 41.5417 238.238 40.2396 239.488 38.4062ZM233.019 27.25C233.019 24.9583 232.248 23.5729 230.706 23.0938C228.873 23.6562 227.508 25.3021 226.613 28.0312H232.956C232.956 27.9479 232.967 27.8229 232.988 27.6562C233.008 27.4896 233.019 27.3542 233.019 27.25Z" fill="black"/>
</svg>
